# xmcd CD database file
#
# Track frame offsets:
#	150
#	11227
#	23885
#	35247
#	54087
#	78870
#	94152
#	109845
#	120510
#	132657
#	153130
#	163157
#	175795
#	198172
#
# Disc length: 2974 seconds
#
# Revision: 0
# Processed by: cddbd v1.5.1PL0 Copyright (c) Steve Scherf et al.
# Submitted via: CDex 1.51
#
DISCID=af0b9c0e
DTITLE=Irén Lovász and Teagrass - Wide Is The Danube
DYEAR=2000
DGENRE=World
TTITLE0=Irén Lovász and Teagrass - Nem Egyszer( trad. moldvai csángó magyar)
TTITLE1=Irén Lovász and Teagrass - Vustyi, Vustyi (trad. cigány, Erdély)
TTITLE2=Irén Lovász and Teagrass - Kdyby Mné Tak Bylo - instrumental (trad. Morava)
TTITLE3=Irén Lovász and Teagrass - Verjen Meg Az Isten (trad. Erdély, Szék)
TTITLE4=Irén Lovász and Teagrass - S Örözgeti Vala (trad. moldvai cságó magyar pakulár)
TTITLE5=Irén Lovász and Teagrass - Ustyen, Usteny (trad. cigány, Erdély)
TTITLE6=Irén Lovász and Teagrass - Szól a kakas már (trad. magyar zsidó, Szatmár)
TTITLE7=Irén Lovász and Teagrass - Piros Pántlikámat - a capella (trad. magyar, Erdély, Szék)
TTITLE8=Irén Lovász and Teagrass - Kedz Sa Mily - instrumental (trad. Morava)
TTITLE9=Irén Lovász and Teagrass - Márton Szép Ilona (trad. moldvai csángó magyar)
TTITLE10=Irén Lovász and Teagrass - Hegyen, Földön - a capella (trad. moldvai csánó magyar)
TTITLE11=Irén Lovász and Teagrass - Byla Cesta/There Was a Road (trad. Morava)
TTITLE12=Irén Lovász and Teagrass - Byla Cesta - instrumental (trad. Morava)
TTITLE13=Irén Lovász and Teagrass - Széles Az A Duna (trad. Magyar, Felvidék, Zoboralja)
EXTD=YEAR: 2000
EXTT0=
EXTT1=
EXTT2=
EXTT3=
EXTT4=
EXTT5=
EXTT6=
EXTT7=
EXTT8=
EXTT9=
EXTT10=
EXTT11=
EXTT12=
EXTT13=
PLAYORDER=
